<svg width="210mm" height="297mm" version="1.1" viewBox="0 0 210 297" xmlns="http://www.w3.org/2000/svg">
 <path transform="scale(1.0054 .99466)" d="m32.648 156.21h22.91c0.34451 0 0.51676-0.17226 0.51676-0.51677 0-0.17225-0.17225-0.3445-0.51676-0.3445-2.7561 0-5.1676-1.0335-6.5457-3.1006-1.5503-1.8948-1.7225-4.8231-0.86127-7.7514l26.183-83.888 26.01 83.888c0.86127 2.9283 0.68902 5.8566-0.86127 7.7514-1.378 2.067-3.7896 3.1006-6.5457 3.1006-0.34451 0-0.51676 0.17225-0.51676 0.3445 0 0.34451 0.17225 0.51677 0.51676 0.51677h37.551c0.17226 0 0.34451-0.17226 0.34451-0.51677 0-0.17225-0.17225-0.3445-0.34451-0.3445-6.2011 0-12.747-4.9954-14.642-11.197l-33.762-108.69h-0.17225v-0.17225h-0.17225-0.17225v-0.17225 0.17225h-0.17225-0.17225v0.17225h-0.17225l-7.2347 23.599-26.527 85.093c-1.8948 6.2011-8.4404 11.197-14.642 11.197-0.17225 0-0.34451 0.17225-0.34451 0.3445-0.17225 0.34451 0.17225 0.51677 0.34451 0.51677z" fill="#db0007" stroke-width="14.354" aria-label="A"/>
 <path transform="scale(1.066 .93813)" d="m175.32 130.35q0 11.659-7.639 24.391-7.505 12.732-20.907 22.247-13.268 9.3812-27.473 11.793-8.175 16.484-11.793 23.051l-2.8144 4.5566q26.535 6.5668 43.958 19.969 8.8451 6.8349 11.928 16.752 1.6082 5.0926 1.6082 8.7111 0 3.6184-1.4742 6.0308-1.3402 2.5463-3.2164 3.4844t-2.6803 0.93812-0.8041-0.67008q0-0.67009 1.4742-4.0205 1.6082-3.2164 1.6082-7.639t-1.8762-9.7832-6.9689-9.9173q-5.0926-4.4226-14.206-8.3091-8.9791-4.0205-15.68-5.6287-6.5668-1.7422-17.69-3.8865-11.391 15.948-23.721 21.845-7.3709 3.6185-13.134 3.6185-5.6287 0-10.051-2.2783-7.639-3.7525-7.639-11.391t10.051-13.402q11.391-6.7008 30.824-6.7008 6.9689 0 12.598 1.0721 6.0308-9.3812 14.072-25.865-0.8041 0-1.4742 0-8.4431 0-15.68-2.8144-7.2369-2.8144-11.525-7.639-5.6287-6.2988-5.6287-14.206 0-4.1545 2.0103-8.9791 2.1443-4.8246 9.2472-9.7832 7.2369-4.9586 18.226-7.505 1.7422-0.40205 2.9484-0.40205t1.4742 0.67008q0.26803 0.67009-1.0721 1.2062-1.3402 0.53606-3.0824 0.8041-5.7627 0.67008-10.721 3.8865-8.5771 5.4947-11.928 16.886-0.8041 2.6803-0.8041 5.2267 0 2.4123 0.93812 5.8967 0.93812 3.4844 4.0205 7.2369 3.0824 3.6185 8.3091 5.0926 5.3607 1.4742 9.2472 1.4742 4.0205 0 7.3709-0.40205l11.391-28.68q11.794-30.288 28.144-37.257 4.2886-1.7422 8.3091-1.7422 4.1545 0 7.773 2.6803 3.7525 2.5463 4.0205 6.2988 0.13402 1.6082 0.13402 3.0824zm-5.6287 0.13402q0-5.0926-4.6906-5.0926-6.8349 0-16.618 11.928-7.639 9.5152-14.742 23.051-6.9689 13.402-12.464 24.793 18.628-4.1545 33.504-20.371 15.01-16.35 15.01-34.308zm-74.245 91.132q-6.5668-1.4742-13.536-1.4742t-14.34 2.0102q-15.412 4.0205-18.092 11.391-0.53607 1.3402-0.53607 2.5463 0 3.4844 3.7525 5.6287 3.8865 2.2783 8.4431 2.2783 6.2988 0 13.67-3.4844 11.123-5.3607 20.639-18.896z" fill="#fff" stroke-width=".28923" aria-label="L"/>
</svg>
